<svg width="25" height="25" viewBox="0 0 25 25" fill="none" xmlns="http://www.w3.org/2000/svg">
<path d="M20.1649 7.3439H4.16495C3.06038 7.3439 2.16495 8.23933 2.16495 9.3439V19.3439C2.16495 20.4485 3.06038 21.3439 4.16495 21.3439H20.1649C21.2695 21.3439 22.1649 20.4485 22.1649 19.3439V9.3439C22.1649 8.23933 21.2695 7.3439 20.1649 7.3439Z" stroke="black" stroke-width="2" stroke-linecap="round" stroke-linejoin="round"/>
<path d="M16.1649 21.3439V5.3439C16.1649 4.81347 15.9542 4.30476 15.5792 3.92969C15.2041 3.55462 14.6954 3.3439 14.1649 3.3439H10.1649C9.63451 3.3439 9.12581 3.55462 8.75073 3.92969C8.37566 4.30476 8.16495 4.81347 8.16495 5.3439V21.3439" stroke="black" stroke-width="2" stroke-linecap="round" stroke-linejoin="round"/>
</svg>
