<svg width="32" height="32" viewBox="0 0 32 32" fill="none" xmlns="http://www.w3.org/2000/svg">
<path d="M9 27H27" stroke="black" stroke-width="2" stroke-linecap="round" stroke-linejoin="round"/>
<path d="M3.35 10H5.5L8 13H12L10.4375 8.3125C10.3881 8.16229 10.375 8.00251 10.3993 7.84626C10.4236 7.69001 10.4846 7.54176 10.5773 7.41366C10.6701 7.28557 10.7918 7.18129 10.9327 7.10938C11.0735 7.03747 11.2294 6.99999 11.3875 7H13.5L19 13H26C27.0609 13 28.0783 13.4214 28.8284 14.1716C29.5786 14.9217 30 15.9391 30 17V20H7.975C7.11592 19.9987 6.28008 19.7208 5.5912 19.2075C4.90231 18.6943 4.39698 17.9728 4.15 17.15L2.3875 11.2875C2.34256 11.1378 2.33334 10.9796 2.36058 10.8257C2.38782 10.6718 2.45075 10.5264 2.54434 10.4012C2.63793 10.276 2.75956 10.1745 2.89948 10.1049C3.03939 10.0352 3.19369 9.99926 3.35 10V10Z" stroke="black" stroke-width="2" stroke-linecap="round" stroke-linejoin="round"/>
</svg>
