<svg width="110" height="131" viewBox="0 0 110 131" fill="none" xmlns="http://www.w3.org/2000/svg">
<path d="M49.9197 85.5637C72.366 85.5637 90.5623 67.3051 90.5623 44.7819C90.5623 22.2587 72.366 4 49.9197 4C27.4734 4 9.2771 22.2587 9.2771 44.7819C9.2771 67.3051 27.4734 85.5637 49.9197 85.5637Z" stroke="#1A1F71" stroke-width="8" stroke-linecap="round" stroke-linejoin="round"/>
<path d="M100.723 95.7592L78.6235 73.584" stroke="#1A1F71" stroke-width="8" stroke-linecap="round" stroke-linejoin="round"/>
<path d="M68.5181 31.9267H33.5301C31.1147 31.9267 29.1566 34.0956 29.1566 36.7711V60.9933C29.1566 63.6688 31.1147 65.8377 33.5301 65.8377H68.5181C70.9335 65.8377 72.8916 63.6688 72.8916 60.9933V36.7711C72.8916 34.0956 70.9335 31.9267 68.5181 31.9267Z" stroke="#FAAA13" stroke-width="4" stroke-linecap="round" stroke-linejoin="round"/>
<path d="M60.9638 65.8377V28.6021C60.9638 27.3676 60.4402 26.1838 59.5082 25.3109C58.5762 24.438 57.3121 23.9476 55.994 23.9476H46.0542C44.7361 23.9476 43.472 24.438 42.54 25.3109C41.6079 26.1838 41.0843 27.3676 41.0843 28.6021V65.8377" stroke="#FAAA13" stroke-width="4" stroke-linecap="round" stroke-linejoin="round"/>
</svg>
